HIERARCHY
ROOT ui
{
	 OFFSET 0 0 0
	 CHANNELS 3 XPosition YPosition Z Position
	 EndSite
	 {
	 OFFSET 0 -1 0
	 }
}
ROOT li
{
	 OFFSET 0 0 0
	 CHANNELS 3 XPosition YPosition Z Position
	 EndSite
	 {
	 OFFSET 0 -1 0
	 }
}
ROOT ul
{
	 OFFSET 0 0 0
	 CHANNELS 3 XPosition YPosition Z Position
	 EndSite
	 {
	 OFFSET 0 -1 0
	 }
}
ROOT ll
{
	 OFFSET 0 0 0
	 CHANNELS 3 XPosition YPosition Z Position
	 EndSite
	 {
	 OFFSET 0 -1 0
	 }
}
ROOT tt
{
	 OFFSET 0 0 0
	 CHANNELS 3 XPosition YPosition Z Position
	 EndSite
	 {
	 OFFSET 0 -1 0
	 }
}
ROOT tb
{
	 OFFSET 0 0 0
	 CHANNELS 3 XPosition YPosition Z Position
	 EndSite
	 {
	 OFFSET 0 -1 0
	 }
}
ROOT td
{
	 OFFSET 0 0 0
	 CHANNELS 3 XPosition YPosition Z Position
	 EndSite
	 {
	 OFFSET 0 -1 0
	 }
}
ROOT v
{
	 OFFSET 0 0 0
	 CHANNELS 3 XPosition YPosition Z Position
	 EndSite
	 {
	 OFFSET 0 -1 0
	 }
}
ROOT bn
{
	 OFFSET 0 0 0
	 CHANNELS 3 XPosition YPosition Z Position
	 EndSite
	 {
	 OFFSET 0 -1 0
	 }
}
MOTION
Frames: 19
Frame Time: 0.002
0.05146279907226563	-5.681800097227097E-5	0		0.5830460815429688	-2.54671435546875	0		-1.06974365234375	-0.11041976165771485	0		-0.6397352905273438	-2.423009765625	0		1.75587353515625	-1.413832275390625	0		3.30055810546875	-0.6818333129882812	0		4.723341796875	-0.22858358764648437	0		5.96268896484375	0.48212603759765627	0		-0.3623788757324219	5.89155810546875	0		
-0.035185554504394534	0.010235193252563477	0		0.5564354858398437	-2.5440185546875	0		-1.0694952392578125	-0.11107669067382812	0		-0.6163540649414062	-2.420885498046875	0		1.7710965576171875	-1.42251806640625	0		3.30065625	-0.6992947998046875	0		4.735615234375	-0.22710684204101564	0		5.9492734375	0.473224853515625	0		-0.36338714599609373	5.891943359375	0		
0.047893875122070315	-0.005199814796447754	0		0.575643310546875	-2.5567705078125	0		-1.0112138061523437	-0.1072975082397461	0		-0.6220984497070312	-2.428427978515625	0		1.7702081298828125	-1.4400140380859374	0		3.303964599609375	-0.6947705688476562	0		4.73585302734375	-0.22749276733398438	0		5.95097216796875	0.49855877685546873	0		-0.34444174194335936	5.8871533203125	0		
-0.03877520751953125	0.006148803234100342	0		0.5499833984375	-2.55402783203125	0		-1.073085693359375	-0.11624359893798829	0		-0.63675341796875	-2.4248427734375	0		1.8233590087890625	-1.452037109375	0		3.3210693359375	-0.7083673706054687	0		4.74099267578125	-0.2359136962890625	0		5.94748388671875	0.4807886657714844	0		-0.36438381958007815	5.89280029296875	0		
0.03536642837524414	-1.1660700291395188E-4	0		0.5820992431640625	-2.570843505859375	0		-1.072885009765625	-0.1167864761352539	0		-0.6275792846679688	-2.435462890625	0		1.8033797607421875	-1.4742786865234374	0		3.332411865234375	-0.6968782958984375	0		4.75424755859375	-0.23139784240722655	0		5.95967529296875	0.46265277099609375	0		-0.3482903137207031	5.90111669921875	0		
-0.028502605438232423	-0.00492860221862793	0		0.5314364624023438	-2.56277294921875	0		-1.068662353515625	-0.11332459259033204	0		-0.5854853515625	-2.451374755859375	0		1.837497314453125	-1.485038818359375	0		3.34749755859375	-0.7084004516601563	0		4.75849365234375	-0.22576751708984374	0		5.96497705078125	0.5052710266113282	0		-0.3643733215332031	5.89180419921875	0		
0.04277401733398437	0.005926299095153809	0		0.5825740356445313	-2.57169970703125	0		-1.06850146484375	-0.11377241516113282	0		-0.6331826171875	-2.443322509765625	0		1.8425902099609375	-1.4954649658203125	0		3.3507138671875	-0.70476953125	0		4.7686572265625	-0.22617265319824217	0		5.955853515625	0.5136782836914062	0		-0.3303121643066406	5.89602734375	0		
-0.03810807418823242	0.00437653923034668	0		0.552742431640625	-2.57375634765625	0		-1.0724053955078126	-0.11812687683105469	0		-0.5622454833984375	-2.468428466796875	0		1.87362158203125	-1.5091143798828126	0		3.3707802734375	-0.7132764282226562	0		4.7687958984375	-0.22644764709472656	0		5.95398974609375	0.5565468139648437	0		-0.3444104919433594	5.8847900390625	0		
0.039983577728271484	0.0022627310752868653	0		0.5737979736328125	-2.5832822265625	0		-1.072297607421875	-0.11846683502197265	0		-0.6041377563476562	-2.472334228515625	0		1.8845689697265624	-1.527516845703125	0		3.36784716796875	-0.71851318359375	0		4.77890478515625	-0.2267936553955078	0		5.95391943359375	0.5215599975585937	0		-0.37844961547851563	5.87980712890625	0		
-0.03792968368530274	0.003783231973648071	0		0.5667498779296875	-2.598473388671875	0		-1.05528515625	-0.12492122650146484	0		-0.562189697265625	-2.48803564453125	0		1.896466796875	-1.546884765625	0		3.382816162109375	-0.7298941650390625	0		4.79001025390625	-0.2241180419921875	0		5.95832275390625	0.5384108276367188	0		-0.3764673767089844	5.8775126953125	0		
0.040090343475341794	0.0017776169776916504	0		0.5767119750976563	-2.607785888671875	0		-1.0471796875	-0.11822657775878906	0		-0.6221641235351563	-2.490648681640625	0		1.8985428466796874	-1.54410693359375	0		3.414056640625	-0.7103995971679687	0		4.7941064453125	-0.2183389434814453	0		5.96184033203125	0.5207283325195312	0		-0.3613870544433594	5.8861416015625	0		
-0.023966976165771484	-0.002736661911010742	0		0.5647819213867188	-2.6008251953125	0		-1.0431590576171874	-0.11543269348144532	0		-0.5223228149414062	-2.50682373046875	0		1.9314451904296874	-1.55359619140625	0		3.399887939453125	-0.7264080200195312	0		4.7951171875	-0.21649549865722656	0		5.9598740234375	0.5637823486328125	0		-0.3444375	5.88380615234375	0		
0.040019283294677736	0.0015077149868011474	0		0.5835966796875	-2.613125	0		-1.0512906494140626	-0.12245861053466797	0		-0.60243212890625	-2.51112158203125	0		1.9411600341796875	-1.5758055419921875	0		3.4138154296875	-0.727659912109375	0		4.80504541015625	-0.21770794677734376	0		5.95968603515625	0.5289900512695312	0		-0.344494384765625	5.88369873046875	0		
-0.03808710479736328	0.0032431139945983886	0		0.5913526611328125	-2.624261962890625	0		-1.05544189453125	-0.12546702575683594	0		-0.5178516845703125	-2.540031494140625	0		1.942890625	-1.5898875732421875	0		3.40866162109375	-0.7306783447265625	0		4.8039140625	-0.21877320861816407	0		5.9596005859375	0.5288502197265625	0		-0.34458837890625	5.883646484375	0		
0.039709259033203125	0.0014535670280456544	0		0.57103125	-2.6350634765625	0		-1.0475618896484375	-0.11853961944580078	0		-0.5722415771484375	-2.557479248046875	0		1.9496168212890626	-1.596973876953125	0		3.430535888671875	-0.7239293212890625	0		4.817630859375	-0.22795375061035156	0		5.96240478515625	0.5494542236328125	0		-0.3646679382324219	5.8898515625	0		
-0.03451496124267578	0.006256662845611573	0		0.595679443359375	-2.64027001953125	0		-1.0438017578125	-0.11551459503173828	0		-0.5046250305175781	-2.5661083984375	0		1.9683079833984376	-1.5991361083984375	0		3.45006494140625	-0.743118408203125	0		4.81956201171875	-0.20797871398925782	0		5.96151513671875	0.5529009399414062	0		-0.32982806396484377	5.89355419921875	0		
-0.034871856689453126	0.006362145900726319	0		0.5693134155273437	-2.636910400390625	0		-1.0401201171875	-0.111434326171875	0		-0.5262440795898438	-2.587781005859375	0		1.9838746337890625	-1.604223876953125	0		3.463685546875	-0.744208984375	0		4.81920166015625	-0.20794834899902342	0		5.96056982421875	0.5581290283203125	0		-0.36415304565429685	5.888009765625	0		
-0.039352596282958986	0.003557435989379883	0		0.623575439453125	-2.660326171875	0		-1.04057275390625	-0.1112606201171875	0		-0.490969970703125	-2.609982421875	0		1.997239990234375	-1.6192498779296876	0		3.452272216796875	-0.7390099487304688	0		4.83365478515625	-0.21703915405273438	0		5.958837890625	0.56169091796875	0		-0.3314211730957031	5.89483447265625	0		
-0.03989385604858398	0.0037568440437316893	0		0.594974365234375	-2.6598564453125	0		-1.04111669921875	-0.1110381851196289	0		-0.4927854614257812	-2.630761474609375	0		2.031598388671875	-1.6254539794921874	0		3.4736005859375	-0.7501146240234375	0		4.82820068359375	-0.20790127563476563	0		5.958453125	0.5617955322265625	0		-0.3658761901855469	5.8903876953125	0		
